
        <svg xmlns="http://www.w3.org/2000/svg" xmlns:xlink="http://www.w3.org/1999/xlink" version="1.1" width="3192" 
        height="3175.271731619674" viewBox="0 0 3192 3175.271731619674">
			
			<g transform="scale(9.6) translate(10, 10)">
				<defs id="SvgjsDefs2165"></defs><g id="SvgjsG2166" featureKey="rootContainer" transform="matrix(3.1218784074090955,0,0,3.1218784074090955,-0.000019352159164580462,0.06530460541469078)" fill="#de344e"><path xmlns="http://www.w3.org/2000/svg" d="M100.1 49.8c0 1.7-1.4 3.4-1.6 5.1s.9 3.6.5 5.3-2.1 3-2.6 4.6.1 3.7-.6 5.3-2.7 2.5-3.6 4-.7 3.7-1.7 5.1-3.2 1.9-4.3 3.2-1.4 3.5-2.7 4.6-3.5 1.2-4.9 2.2-2.1 3.1-3.6 4-3.6.4-5.2 1.1-2.7 2.6-4.3 3.1-3.6-.3-5.3 0-3.2 2-4.9 2.1-3.5-1.1-5.2-1.1-3.5 1.3-5.2 1.1-3.2-1.8-4.9-2.1-3.7.5-5.3 0-2.8-2.4-4.3-3.1-3.9-.3-5.4-1.2-2.2-2.9-3.6-4-3.6-1-4.9-2.2-1.5-3.3-2.7-4.6-3.3-1.8-4.3-3.2-.8-3.6-1.7-5.1-2.9-2.4-3.6-4 0-3.7-.6-5.3-2.3-2.9-2.6-4.6.7-3.6.5-5.3-1.5-3.3-1.5-5 1.4-3.4 1.6-5.1-.9-3.7-.5-5.3 2.1-3 2.6-4.6-.1-3.7.6-5.3 2.7-2.5 3.6-4 .7-3.7 1.7-5.1 3.2-1.9 4.3-3.2 1.4-3.5 2.7-4.6 3.5-1.2 4.9-2.2 2.1-3.1 3.6-4 3.6-.4 5.2-1.1 2.7-2.6 4.3-3.1 3.6.3 5.3 0 3.2-2 4.9-2.2 3.5 1.1 5.2 1.1S53.6-.2 55.3 0s3.2 1.8 4.9 2.1 3.7-.5 5.3 0 2.8 2.4 4.3 3.1 3.7.3 5.2 1.1 2.2 2.9 3.6 4 3.6 1 4.9 2.2 1.5 3.3 2.7 4.6 3.3 1.8 4.3 3.2.8 3.6 1.7 5.1 2.9 2.4 3.6 4 0 3.7.6 5.3 2.3 2.9 2.6 4.6-.7 3.6-.5 5.3 1.6 3.4 1.6 5.2z"></path></g><g id="SvgjsG2167" featureKey="nameFeature-0" transform="matrix(3.4239261047198104,0,0,3.4239261047198104,56.684790282175065,35.45858541529523)" fill="#d8e9f0"><path d="M22.88 9.440000000000001 c-1.44 8.2 -3.56 19.68 -4 28.36 c-0.56 1.12 -3.28 2.44 -4.4 2.2 c0.24 -4.32 1.04 -9.76 1.56 -14.48 l-0.6 0.24 c-1.6 4.24 -3.28 9.68 -4.16 13.84 c-1.2 0 -3.04 -0.52 -3.76 -2.4 c-1.2 -3.12 -0.72 -7.12 -1.2 -12.04 l-0.48 0.44 c-0.56 4.24 -2.36 10.8 -2.16 15.12 c-1.28 -0.24 -2.96 -0.72 -3.88 -2.68 c0.64 -9.24 2.28 -16.44 4.28 -25.24 c0.52 -2.16 5.6 -3 6.28 -2.32 c-0.4 4.84 -0.84 11.84 -0.12 15.84 c0.36 0.12 0.64 0.32 0.68 0 c1.4 -4.52 3.88 -11.56 5.8 -15.84 c1.52 -0.96 4.8 -2 6.16 -1.04 z M35.412 9.04 c0.12 1.04 -0.76 4.32 -2.04 4.88 c-1.04 0.44 -2.84 0.24 -4.12 0.8 c-0.6 1.28 -1.48 4.4 -1.64 6.72 c1.24 -0.2 3.12 -0.96 4.4 -0.96 c0.4 1.76 -0.92 3.92 -2.08 4.72 c-0.64 0.44 -2.2 0.72 -3 1.04 c-0.64 2.16 -1.08 6.56 -1.24 8.16 c1.08 0 2.92 -0.64 4.52 -1.12 c0.4 1.92 -0.72 4.32 -1.56 5 c-1.56 1.24 -4.8 1.96 -6.68 1.56 c-0.56 -0.12 -1.16 -0.8 -1.08 -1.52 c0.64 -7.04 1.88 -13.52 3.36 -20.16 c0.28 -1.28 2.12 -2 2.16 -2.8 c0.04 -0.84 -3.08 0.68 -3.84 0.64 c0.04 -1.44 1.16 -3.88 2.2 -4.92 c1.2 -1.16 8.88 -2.44 10.64 -2.04 z M48.384 9.399999999999999 c-2.04 8.32 -5.56 21.8 -5.2 29.96 c-1.48 -0.04 -3.44 0 -4.16 -1.28 c-1.48 0.84 -3.4 1.44 -4.52 0.88 c-1.52 -0.8 -2.72 -2.08 -2.68 -5.88 c0.08 -6.8 2.72 -16.44 4.2 -22 c1.16 0.04 3.24 0.4 4.28 1.72 c-1.4 3.92 -2.16 6.76 -2.8 9.92 c-1.36 6.84 -1.68 10.48 -0.52 11.2 c0.56 0.36 1.48 -0.04 2.44 -0.68 c0.88 -8.04 2.76 -16.32 4.44 -23.08 c1.04 -0.64 3.4 -1.52 4.52 -0.76 z M57.396 15.52 c-3.76 2.08 -7.64 6.32 -6.16 9.48 c1.24 2.68 4.56 4.4 3.6 7.96 c-0.8 3.12 -3.28 6.76 -6.56 7.4 c-1.72 0.32 -2.88 -2.6 -3.12 -4.08 c2.24 -0.76 4.32 -2 5 -4.36 c1 -3.52 -3.44 -3.04 -3.84 -7.52 c-0.44 -5 5 -11.8 10.08 -15.48 c1.4 0.92 2.72 5.64 1 6.6 z"></path></g><g id="SvgjsG2168" featureKey="nameFeature-1" transform="matrix(1.8362792928800469,0,0,1.8362792928800469,56.446974199177575,168.67173586617486)" fill="#d8e9f0"><path d="M13.44 15.68 c0.04 4.8 -1.12 10.52 -4.48 14.4 c-0.84 0.96 -3.28 2.04 -4.36 1.6 c-0.48 3 -0.96 5.68 -1 8.8 c-0.88 0.2 -3.96 -0.56 -3.84 -2.08 c0.68 -7.52 1.88 -13.48 3.44 -20.72 c0.16 -0.68 1.88 -1.68 1.6 -2.44 c-0.28 -0.8 -2.16 0.12 -3.04 0.36 c0.28 -0.96 0.6 -3.04 1.52 -4.64 c0.76 -1.36 4.12 -2.2 6.4 -1.64 c2.56 0.6 3.72 3.68 3.76 6.36 z M9 15.04 c-0.2 -0.36 -0.84 -0.32 -1.2 0.08 c-0.96 3.84 -1.56 7.8 -2.24 11.8 c0.72 0.28 1.72 -0.6 2 -1.2 c1.48 -3.2 2.88 -7.72 1.44 -10.68 z M25.172 15.079999999999998 c0.24 4.44 -0.76 9.68 -4.2 12.8 c0.48 4.48 0.84 6.24 2.44 10.52 c-0.96 0.96 -3.32 3.04 -4 1.36 c-1.28 -3.12 -1.92 -7.68 -2.36 -10.72 c-0.12 -0.04 -0.28 -0.04 -0.36 -0.08 c-0.44 2.84 -1.12 8.32 -0.96 11.24 c-1.76 0.76 -4.32 0 -4.24 -1.32 c0.32 -6.32 1.92 -14.44 3.36 -21.44 c0.16 -0.8 2.16 -1.92 1.44 -2.32 c-0.84 -0.44 -2.16 0.4 -3.04 0.64 c0.16 -1.12 0.48 -3.36 1.36 -4.88 c0.8 -1.36 4.36 -2.32 6.8 -1.88 c2.8 0.52 3.64 3.56 3.76 6.08 z M20.652 14.8 c-0.2 -0.36 -0.76 -0.24 -1.24 -0.08 c-0.92 3.64 -1.32 6.32 -1.92 10.08 c0.56 0 1.76 -1 2.16 -1.6 c1.08 -1.68 2.68 -5.64 1 -8.4 z M38.464 9.04 c0.12 1.04 -0.76 4.32 -2.04 4.88 c-1.04 0.44 -2.84 0.24 -4.12 0.8 c-0.6 1.28 -1.48 4.4 -1.64 6.72 c1.24 -0.2 3.12 -0.96 4.4 -0.96 c0.4 1.76 -0.92 3.92 -2.08 4.72 c-0.64 0.44 -2.2 0.72 -3 1.04 c-0.64 2.16 -1.08 6.56 -1.24 8.16 c1.08 0 2.92 -0.64 4.52 -1.12 c0.4 1.92 -0.72 4.32 -1.56 5 c-1.56 1.24 -4.8 1.96 -6.68 1.56 c-0.56 -0.12 -1.16 -0.8 -1.08 -1.52 c0.64 -7.04 1.88 -13.52 3.36 -20.16 c0.28 -1.28 2.12 -2 2.16 -2.8 c0.04 -0.84 -3.08 0.68 -3.84 0.64 c0.04 -1.44 1.16 -3.88 2.2 -4.92 c1.2 -1.16 8.88 -2.44 10.64 -2.04 z M47.036 15.52 c-3.76 2.08 -7.64 6.32 -6.16 9.48 c1.24 2.68 4.56 4.4 3.6 7.96 c-0.8 3.12 -3.28 6.76 -6.56 7.4 c-1.72 0.32 -2.88 -2.6 -3.12 -4.08 c2.24 -0.76 4.32 -2 5 -4.36 c1 -3.52 -3.44 -3.04 -3.84 -7.52 c-0.44 -5 5 -11.8 10.08 -15.48 c1.4 0.92 2.72 5.64 1 6.6 z M60.08800000000001 9.04 c0.12 1.04 -0.76 4.32 -2.04 4.88 c-1.04 0.44 -2.84 0.24 -4.12 0.8 c-0.6 1.28 -1.48 4.4 -1.64 6.72 c1.24 -0.2 3.12 -0.96 4.4 -0.96 c0.4 1.76 -0.92 3.92 -2.08 4.72 c-0.64 0.44 -2.2 0.72 -3 1.04 c-0.64 2.16 -1.08 6.56 -1.24 8.16 c1.08 0 2.92 -0.64 4.52 -1.12 c0.4 1.92 -0.72 4.32 -1.56 5 c-1.56 1.24 -4.8 1.96 -6.68 1.56 c-0.56 -0.12 -1.16 -0.8 -1.08 -1.52 c0.64 -7.04 1.88 -13.52 3.36 -20.16 c0.28 -1.28 2.12 -2 2.16 -2.8 c0.04 -0.84 -3.08 0.68 -3.84 0.64 c0.04 -1.44 1.16 -3.88 2.2 -4.92 c1.2 -1.16 8.88 -2.44 10.64 -2.04 z M74.82000000000001 9.2 c-2.84 5.44 -5.24 22.48 -5.8 28.52 c-0.6 1.48 -2.96 2.64 -4.44 2.28 c-1.16 -3.96 -1.8 -10.24 -2.24 -14.48 l-0.6 0.08 c-0.6 4.24 -1.6 8.48 -1.4 12.84 c-0.96 1.24 -4.44 2.6 -4.4 1.28 c0.16 -8.44 2.52 -19.48 3.92 -26.92 c0.32 -1.56 4.88 -3 5.6 -2.32 c-0.44 4.84 0.12 9.44 0.84 13.76 c0.4 0.12 0.48 0 0.68 -0.16 c0.96 -4.56 1.4 -9.32 2.92 -13.6 c1.08 -0.88 3.24 -1.44 4.92 -1.28 z M88.11200000000001 9.239999999999998 c0.16 1.04 -0.36 4.4 -1.64 4.96 c-1.04 0.44 -2.88 -0.04 -4.16 0.52 c-2.2 9.52 -3.28 15.52 -4.04 26.08 c-1.24 0.56 -4.48 -1 -4.28 -2.6 c0.8 -6.88 1.88 -13.36 3.64 -20.04 c0.36 -1.36 2.24 -2.08 1.88 -2.8 c-0.36 -0.76 -4.48 0.8 -5.92 1.2 c0 -1.84 0.72 -3.96 1.72 -4.96 c0.84 -0.84 5.28 -1.76 7.2 -2 c0.84 -0.08 4.56 -0.6 5.6 -0.36 z M99.284 9.04 c0.12 1.04 -0.76 4.32 -2.04 4.88 c-1.04 0.44 -2.84 0.24 -4.12 0.8 c-0.6 1.28 -1.48 4.4 -1.64 6.72 c1.24 -0.2 3.12 -0.96 4.4 -0.96 c0.4 1.76 -0.92 3.92 -2.08 4.72 c-0.64 0.44 -2.2 0.72 -3 1.04 c-0.64 2.16 -1.08 6.56 -1.24 8.16 c1.08 0 2.92 -0.64 4.52 -1.12 c0.4 1.92 -0.72 4.32 -1.56 5 c-1.56 1.24 -4.8 1.96 -6.68 1.56 c-0.56 -0.12 -1.16 -0.8 -1.08 -1.52 c0.64 -7.04 1.88 -13.52 3.36 -20.16 c0.28 -1.28 2.12 -2 2.16 -2.8 c0.04 -0.84 -3.08 0.68 -3.84 0.64 c0.04 -1.44 1.16 -3.88 2.2 -4.92 c1.2 -1.16 8.88 -2.44 10.64 -2.04 z M107.85600000000001 15.52 c-3.76 2.08 -7.64 6.32 -6.16 9.48 c1.24 2.68 4.56 4.4 3.6 7.96 c-0.8 3.12 -3.28 6.76 -6.56 7.4 c-1.72 0.32 -2.88 -2.6 -3.12 -4.08 c2.24 -0.76 4.32 -2 5 -4.36 c1 -3.52 -3.44 -3.04 -3.84 -7.52 c-0.44 -5 5 -11.8 10.08 -15.48 c1.4 0.92 2.72 5.64 1 6.6 z"></path></g>
			</g>
		</svg>
	